<svg id="Capa_1" data-name="Capa 1" xmlns="http://www.w3.org/2000/svg" viewBox="0 0 201 150"><defs><style>.cls-1{fill:#161616;}.cls-2{fill:#fff;}.cls-3{fill:#009246;}.cls-4{fill:#ce2b37;}</style></defs><rect class="cls-1" width="201" height="150" rx="13.78"/><path class="cls-2" d="M10.23,84.28,21.28,59.49h5.66L38,84.28H32L22.94,62.4h2.27l-9.1,21.88ZM15.75,79l1.53-4.36H30L31.58,79Z" transform="translate(0 0)"/><path class="cls-2" d="M44.15,84.28V59.49H48.9L63.52,77.34h-2.3V59.49h5.67V84.28H62.18L47.52,66.43h2.3V84.28Z" transform="translate(0 0)"/><path class="cls-2" d="M88.27,84.7a15.08,15.08,0,0,1-5.4-.93,12.74,12.74,0,0,1-4.28-2.68A12.07,12.07,0,0,1,75.76,77a13.53,13.53,0,0,1,0-10.27,12.09,12.09,0,0,1,2.85-4.07A12.45,12.45,0,0,1,82.93,60a16.38,16.38,0,0,1,11.38.16,11.86,11.86,0,0,1,4.45,3.18l-3.69,3.4a9,9,0,0,0-2.94-2.1,8.65,8.65,0,0,0-3.47-.7,9.23,9.23,0,0,0-3.29.57,7.23,7.23,0,0,0-4.23,4.14,8.72,8.72,0,0,0-.59,3.23,8.43,8.43,0,0,0,.59,3.18A7.41,7.41,0,0,0,82.8,77.6a7.06,7.06,0,0,0,2.55,1.65,9,9,0,0,0,3.24.57,10,10,0,0,0,3.31-.55A9.71,9.71,0,0,0,95,77.41l3.26,4.14a14.79,14.79,0,0,1-4.7,2.34A18.24,18.24,0,0,1,88.27,84.7Zm4.78-3.89V71.5H98.3v10Z" transform="translate(0 0)"/><path class="cls-2" d="M112.85,79.68h13.49v4.6H107.15V59.49h18.73V64.1h-13Zm-.43-10.2h11.94v4.46H112.42Z" transform="translate(0 0)"/><path class="cls-2" d="M134.46,84.28V59.49h5.74V79.61h12.42v4.67Z" transform="translate(0 0)"/><path class="cls-2" d="M171,84.7a14.9,14.9,0,0,1-5.44-1A13.2,13.2,0,0,1,161.24,81a12.54,12.54,0,0,1-2.83-4,13.35,13.35,0,0,1,0-10.2,12.09,12.09,0,0,1,2.85-4.07,13.22,13.22,0,0,1,4.32-2.7,15.73,15.73,0,0,1,10.78,0,13.09,13.09,0,0,1,4.29,2.7,12.71,12.71,0,0,1,.39,18l-.39.39a13.28,13.28,0,0,1-4.29,2.67A14.63,14.63,0,0,1,171,84.7Zm0-4.88a8.08,8.08,0,0,0,3.07-.57,7.36,7.36,0,0,0,4.1-4.14,9.07,9.07,0,0,0,0-6.45,7.6,7.6,0,0,0-1.63-2.51A7,7,0,0,0,174,64.52a8.11,8.11,0,0,0-3-.52,8,8,0,0,0-3.06.57,7.39,7.39,0,0,0-2.46,1.63,7.66,7.66,0,0,0-1.65,2.51,9.24,9.24,0,0,0,0,6.43,7.26,7.26,0,0,0,4.09,4.16A8.09,8.09,0,0,0,171,79.82Z" transform="translate(0 0)"/><path class="cls-2" d="M27.09,105.13v-.47h2.69v.47Z" transform="translate(0 0)"/><path class="cls-2" d="M35.27,107.7l3.38-7.34h.53l3.37,7.34H42l-3.18-7H39l-3.15,7Zm1.18-2.06.18-.45H41l.17.45Z" transform="translate(0 0)"/><path class="cls-2" d="M44.93,107.7v-7.34h.54v6.86h4.22v.48Z" transform="translate(0 0)"/><path class="cls-2" d="M52.11,107.7v-7.34h.45L56,106.28h-.25l3.4-5.92h.44v7.34H59v-6.51h.15L56,106.74h-.26l-3.29-5.55h.16v6.51Z" transform="translate(0 0)"/><path class="cls-2" d="M61.93,107.7l3.37-7.34h.55l3.36,7.34h-.57l-3.16-7h.22l-3.22,7Zm1.18-2.06.18-.45h4.39l.18.45Z" transform="translate(0 0)"/><path class="cls-2" d="M74.56,107.76a4,4,0,0,1-1.52-.27,3.73,3.73,0,0,1-1.18-.78,3.18,3.18,0,0,1-.79-1.19,3.72,3.72,0,0,1-.29-1.48,3.79,3.79,0,0,1,.29-1.48,3.6,3.6,0,0,1,.79-1.18,3.82,3.82,0,0,1,1.18-.77,4,4,0,0,1,1.52-.28,4.24,4.24,0,0,1,1.45.24,3.1,3.1,0,0,1,1.18.77l-.33.35a3,3,0,0,0-1-.67,3.79,3.79,0,0,0-2.53,0,3.43,3.43,0,0,0-1,.69,3,3,0,0,0-.69,1,3.43,3.43,0,0,0,0,2.56,3.07,3.07,0,0,0,1.73,1.7,3.33,3.33,0,0,0,1.32.25,3.66,3.66,0,0,0,1.18-.2,2.71,2.71,0,0,0,1-.69l.34.36a3,3,0,0,1-1.19.77A4,4,0,0,1,74.56,107.76Z" transform="translate(0 0)"/><path class="cls-2" d="M80.54,107.23h4.54v.47H80v-7.34h4.9v.49H80.54Zm0-3.48h3.88v.47H80.48Zm1.4-4,1.45-1.18h.75l-1.65,1.18Z" transform="translate(0 0)"/><path class="cls-2" d="M88.07,107.7v-7.34h.45L93.74,107h-.23v-6.68H94v7.34H93.6L88.36,101h.24v6.68Z" transform="translate(0 0)"/><path class="cls-2" d="M101.39,107.7v-7.34h2.9a4.26,4.26,0,0,1,2,.48,3.39,3.39,0,0,1,1.38,1.3,4,4,0,0,1,0,3.79,3.52,3.52,0,0,1-1.38,1.3,4.14,4.14,0,0,1-2,.47Zm.54-.48h2.36a3.71,3.71,0,0,0,1.8-.4,3,3,0,0,0,1.19-1.19,3.22,3.22,0,0,0,.43-1.66,3.17,3.17,0,0,0-.43-1.64,2.85,2.85,0,0,0-1.19-1.19,3.72,3.72,0,0,0-1.8-.41h-2.36Z" transform="translate(0 0)"/><path class="cls-2" d="M111.66,107.23h4.52v.47h-5.05v-7.34H116v.49h-4.37Zm0-3.48h4v.47h-4Z" transform="translate(0 0)"/><path class="cls-2" d="M122.83,107.7v-7.34h2.63a3.9,3.9,0,0,1,1.58.3,2.29,2.29,0,0,1,1,.85,2.4,2.4,0,0,1,.36,1.33A2.27,2.27,0,0,1,127,105a4.06,4.06,0,0,1-1.58.28h-2.37l.23-.25v2.65Zm.53-2.61-.24-.26h2.37a2.77,2.77,0,0,0,1.8-.53,2.06,2.06,0,0,0,0-2.91l0,0a2.7,2.7,0,0,0-1.8-.52h-2.37l.24-.26Z" transform="translate(0 0)"/><path class="cls-2" d="M129.66,107.7l3.37-7.34h.54l3.37,7.34h-.57l-3.18-7h.22l-3.17,7Zm1.18-2.06.18-.45h4.39l.18.45Z" transform="translate(0 0)"/><path class="cls-2" d="M141.26,107.76a4.12,4.12,0,0,1-1.55-.27,2.94,2.94,0,0,1-1.18-.72l.24-.39a3.2,3.2,0,0,0,1,.65,3.65,3.65,0,0,0,1.38.27,3.2,3.2,0,0,0,1.19-.2,1.51,1.51,0,0,0,.7-.52,1.33,1.33,0,0,0,.22-.72,1,1,0,0,0-.26-.75,1.62,1.62,0,0,0-.65-.45,4.6,4.6,0,0,0-.89-.28l-1-.25a4.1,4.1,0,0,1-.9-.35,1.68,1.68,0,0,1-.65-.56,1.57,1.57,0,0,1-.25-.94,1.78,1.78,0,0,1,1.12-1.68,3.4,3.4,0,0,1,1.47-.27,4.39,4.39,0,0,1,1.19.17,3.33,3.33,0,0,1,1,.49l-.2.43a3.28,3.28,0,0,0-1-.47,3.62,3.62,0,0,0-1-.15,2.84,2.84,0,0,0-1.19.2,1.49,1.49,0,0,0-.67.52,1.33,1.33,0,0,0-.23.75,1.24,1.24,0,0,0,.25.76,2.23,2.23,0,0,0,.65.45,7.69,7.69,0,0,0,.9.27l1,.25a4.71,4.71,0,0,1,.88.34,1.94,1.94,0,0,1,.67.57,1.66,1.66,0,0,1,.25.92,1.72,1.72,0,0,1-.29,1,1.86,1.86,0,0,1-.86.71A3.45,3.45,0,0,1,141.26,107.76Z" transform="translate(0 0)"/><path class="cls-2" d="M148.05,107.7v-6.85h-2.64v-.49h5.81v.49h-2.64v6.85Z" transform="translate(0 0)"/><path class="cls-2" d="M152,107.7l3.38-7.34h.54l3.38,7.34h-.59l-3.22-7h.23l-3.14,7Zm1.18-2.06.18-.45h4.5l.18.45Z" transform="translate(0 0)"/><path class="cls-2" d="M163.57,107.76a4.1,4.1,0,0,1-1.54-.27,2.94,2.94,0,0,1-1.18-.72l.25-.39a2.91,2.91,0,0,0,1,.65,3.65,3.65,0,0,0,1.38.27,3.2,3.2,0,0,0,1.19-.2,1.53,1.53,0,0,0,.69-.52,1.16,1.16,0,0,0,.22-.72,1.13,1.13,0,0,0-.25-.75,1.66,1.66,0,0,0-.66-.45,4.83,4.83,0,0,0-.89-.28l-1-.25a4.18,4.18,0,0,1-.91-.35,1.68,1.68,0,0,1-.65-.56,1.57,1.57,0,0,1-.25-.94,1.84,1.84,0,0,1,.27-1,2,2,0,0,1,.85-.71,3.44,3.44,0,0,1,1.48-.27,4.39,4.39,0,0,1,1.19.17,3.69,3.69,0,0,1,1,.49l-.21.43a3.22,3.22,0,0,0-1-.47,3.5,3.5,0,0,0-1-.15,2.8,2.8,0,0,0-1.18.2,1.5,1.5,0,0,0-.69.52,1.33,1.33,0,0,0-.21.75,1.11,1.11,0,0,0,.23.76,2.19,2.19,0,0,0,.67.45,6.69,6.69,0,0,0,.9.27l1,.25a5.09,5.09,0,0,1,.89.34,1.81,1.81,0,0,1,.66.57,1.58,1.58,0,0,1,.25.92,1.72,1.72,0,0,1-.29,1,1.86,1.86,0,0,1-.86.71A3.47,3.47,0,0,1,163.57,107.76Z" transform="translate(0 0)"/><path class="cls-2" d="M172.19,105.13v-.47h2.69v.47Z" transform="translate(0 0)"/><rect class="cls-3" x="49.3" y="41.87" width="27.3" height="2.72"/><rect class="cls-4" x="123.08" y="41.87" width="27.3" height="2.72"/><rect class="cls-2" x="76.77" y="41.87" width="46.48" height="2.72"/></svg>